<?xml version="1.0" encoding="UTF-8"?>
<svg id="Layer_1" xmlns="http://www.w3.org/2000/svg" version="1.1" viewBox="0 0 304 231">
  <!-- Generator: Adobe Illustrator 29.1.0, SVG Export Plug-In . SVG Version: 2.1.0 Build 142)  -->
  <path d="M141,5.6c-26,3.2-49.6,14-66.9,30.7-9.6,9.3-21.5,25.6-23.6,32.5-1.6,5.4,4.6,7.1,7.3,2s4.7-7.7,8.4-13.3c5.3-8.1,8.7-11.9,16.7-18.7,11.6-10,18.9-14.4,32.2-19.2,22.9-8.3,43.8-8.9,65.4-2,10.9,3.5,20.7,8.2,28.8,13.7,6.6,4.6,10,5.7,11.2,3.7,2-3.2-4.6-8.9-18.5-16.2-10.7-5.7-18.2-8.5-29-10.9-8.5-1.9-25.4-3.1-32-2.3Z"/>
  <path d="M230.5,39.5c-13.9,2.3-27.3,5.5-34.3,8.1-3.7,1.4-11.6,3.9-17.7,5.5-12,3.2-29.6,8.4-53.5,16-8.5,2.6-15.5,4.7-15.7,4.6-.1-.2,1.5-4.1,3.7-8.7,4.8-10.4,5.8-15.2,3.6-18.5-1.9-2.9-5.6-3.3-7.8-.8-2,2.3-10.3,17.6-15.2,28-3.7,7.8-4.2,8.4-8.5,9.9-2.5.9-7.5,2.7-11.1,4-12.7,4.6-36.8,12.2-42.5,13.4-17.4,3.6-24.9.1-17.5-8.3,3.7-4.3,3.8-6.4.3-7.8-5.5-2.1-11.3,1.9-13.5,9.3-2.5,8.3,2.8,16,12.4,18,10,2.1,33.5-3.2,58.6-13.3,5.7-2.3,10.5-4,10.7-3.7.2.2-.7,2.8-2.1,5.8-4.6,9.7-9.1,23.4-12.8,38.1-5.3,21.5-6.8,32.3-6.8,49.9-.1,13.1.3,16.5,2.1,22.1,2.3,7.3,4,9.4,7,8.4,2.9-.9,3.2-2.7,1.5-10.7-2.1-9.8-1.4-31.6,1.5-45.3,4.7-22.2,13-45.8,23.2-66.1l6.1-12.2,6.2-2.2c21.3-7.5,56.7-19.1,60-19.7,3.2-.5,3.8-.3,3.1.8-.5.8-2.8,4.4-5.2,8.1-7.2,11.1-11.9,21.6-18.2,40.6-3.4,10-6.1,18.7-6.1,19.4,0,2.3-16.3,21.8-18.1,21.8s-.6-1.3,3.7-16.3c4.1-14.3,4.2-17,.9-20.2-8.6-8.7-31.3,5.2-40.4,24.6-7.7,16.5-6.2,26.9,3.9,26.9s6.4-1.3,13-9.6c5.8-7.2,6-7.4,6-4.4,0,4.5,2.5,8.6,6.1,9.9,4.2,1.5,9-.6,15.3-6.7,3.2-3.2,4.6-4.1,4.3-2.7-3,10.9-3.4,23.5-.9,28.5,1.5,3.1,2.1,3.5,5.7,3.5h4l.7-6.5c.7-7,5.2-22,8.9-29.1,4.8-9.5,17.8-27,21.7-29.3,1.2-.7,1,.1-.6,2.8-1.2,2-3.8,8.4-5.7,14.2-5.2,15.5-4.8,27.3,1,30.4,5.3,2.9,13.5-1.8,21-11.9q3.6-5,6.3-3.4c2,1.2,3.9,1.4,6.7.9,3.2-.6,5.6-2.3,12.3-9.2,4.6-4.6,8.6-8.4,8.8-8.4s.4.9.4,2c0,6.7,5.4,9.8,13.6,7.7,16.8-4.4,45-31.7,53.8-52.1,2.5-6,3.1-8.7,3.4-17.6s.1-11.4-1.8-16.2c-4.3-11.5-14.4-19.3-29-22.4-8-1.7-25.8-1.6-36.5.1ZM270.6,46.9c14.7,5.2,23.1,19.3,20.4,34.1-2.1,11.2-13.1,29.4-24.1,39.6-11,10.3-26.8,20.8-28.6,19.1-.4-.5.3-3.6,1.6-7,6.5-17.2,7.3-19.7,6.7-22.1-2.1-8.4-15.4-9.1-26.6-1.4-7.4,5.1-17.5,17.2-22.2,26.6-3.9,7.5-16.8,24.2-18.9,24.2s2.3-11.5,8.4-25.4c6.7-15.6,7.8-21.6,4.3-24.2-3.9-2.8-10.4-1.2-17,4.3-1.6,1.3-3.1,2.2-3.3,1.9-.2-.2,2.1-4.6,5.2-9.7,6.5-10.6,12.1-21.4,14.2-27.4,1.7-4.9,1.9-15.1.3-17-.7-.8-1-2.1-.7-2.8,1.5-3.8,28.8-12.4,46.5-14.6,11.2-1.4,27-.5,33.8,1.8ZM184.4,73.7c-1.7,7.3-14.7,30.4-23.1,41.2-3.1,4,6.2-20.5,11.7-30.8,5.8-10.8,13-17.4,11.4-10.4ZM231.3,118.4c-1.4,2.5-17,21-19.9,23.6l-2.7,2.5,3.4-6.5c2-3.9,6.3-9.4,10.6-13.8,6.7-6.6,10.6-9.3,8.6-5.8ZM115.4,130.2c-6.8,11.6-18.3,26.5-18.4,23.8,0-2,8.9-15.5,13.8-20.8,3.7-4,6.1-5.6,4.6-3Z"/>
  <path d="M231.3,53.7c-.3.9.1,2.8,1,4.2,4.3,6.9,9.2,17.3,11.1,23.6,1.9,6.2,2.5,7,4.9,7.3,3.8.5,4.4-1.9,2.3-9.7-4.4-16.7-16.5-32.7-19.3-25.4Z"/>
  <path d="M244.7,158.8c-.9,1-1.7,2.2-1.7,2.7s-2.5,5.1-5.7,10.4c-6.4,11-20.4,25.6-31.3,32.6-23.6,15.3-55,20.4-80.5,13-10.4-3.1-25.3-10-31.8-15-5-3.8-6.8-4.3-8.7-2s1,5.9,9.1,11.1c40.9,26.5,93.7,21.4,131.1-12.6,11.2-10.1,26.3-33,25.6-38.7-.4-3.4-3.6-4.2-6.1-1.5Z"/>
</svg>