<svg xmlns="http://www.w3.org/2000/svg" xmlns:v="https://svgstorm.com" viewBox="0 0 405 308" width="405" height="308">
<g fill="None" fill-opacity="0.0" stroke="black" stroke-width="1"><path d="
M 0.00 126.00 
C 0.50 126.00 1.00 126.00 1.00 126.00
C 2.29 119.03 13.26 107.72 20.25 113.80 C 27.24 119.87 6.59 133.11 20.25 135.80 C 33.91 138.49 40.55 134.50 51.25 132.20 C 61.94 129.90 68.38 126.37 78.25 123.24 C 88.12 120.12 95.23 118.19 103.70 115.65 C 112.16 113.11 121.10 108.00 124.13 100.08 C 127.16 92.17 130.09 85.71 134.19 78.75 C 138.29 71.78 141.26 61.84 151.00 58.00
C 151.93 59.45 153.98 62.33 157.00 63.00
C 156.85 78.06 149.73 85.51 146.00 98.00
C 160.08 96.50 172.60 88.56 186.25 85.24 C 199.89 81.93 212.96 77.05 226.77 73.43 C 240.58 69.80 254.21 66.03 266.30 61.29 C 278.38 56.55 290.81 56.77 304.75 53.60 C 318.70 50.43 340.98 50.33 355.75 52.40 C 370.53 54.46 384.96 65.18 392.24 76.77 C 399.51 88.36 397.65 110.62 393.41 123.75 C 389.17 136.88 381.90 145.30 372.10 158.10 C 362.30 170.90 346.14 182.41 336.70 189.71 C 327.26 197.02 301.59 205.11 303.00 184.00
C 289.22 189.79 277.97 217.22 264.00 205.00
C 252.78 210.48 246.87 228.12 232.92 227.07 C 218.97 226.01 221.94 207.35 224.92 195.92 C 227.90 184.48 230.74 173.02 237.00 163.00
C 221.87 175.68 212.77 190.31 205.87 203.92 C 198.97 217.53 195.56 233.21 194.00 250.00
C 190.04 250.58 186.50 248.96 183.00 250.00
C 180.14 244.35 177.80 235.26 178.07 226.93 C 178.34 218.59 183.40 214.11 180.00 207.00
C 170.23 223.37 148.04 225.53 147.00 204.00
C 139.06 211.30 131.71 228.59 118.71 224.29 C 105.70 220.00 111.59 204.39 115.13 195.08 C 118.67 185.77 122.58 177.83 132.25 169.25 C 141.92 160.67 146.80 155.54 159.25 153.20 C 171.69 150.86 176.88 163.36 172.61 173.75 C 168.33 184.15 167.89 194.40 164.00 206.00
C 187.68 189.29 192.07 166.60 199.39 143.25 C 206.72 119.90 215.99 105.52 229.00 84.00
C 217.57 85.01 209.52 89.71 200.08 92.13 C 190.64 94.56 182.61 98.74 173.08 101.13 C 163.55 103.53 156.55 107.93 146.25 110.26 C 135.95 112.59 132.68 119.28 129.81 127.25 C 126.94 135.23 121.30 141.01 118.29 149.30 C 115.28 157.60 112.45 166.24 109.65 174.70 C 106.84 183.15 103.00 192.91 100.24 202.25 C 97.49 211.58 97.60 220.28 95.60 229.75 C 93.61 239.22 93.85 255.71 93.35 266.69 C 92.85 277.68 103.23 290.62 89.00 293.00
C 75.43 268.65 81.05 227.57 86.19 201.75 C 91.32 175.92 100.54 149.14 110.00 127.00
C 91.99 132.10 72.94 141.52 55.23 145.58 C 37.52 149.63 7.40 157.74 1.00 134.00
C 0.97 133.88 0.00 134.00 0.00 134.00
L 0.00 308.00
L 405.00 308.00
L 405.00 0.00
L 0.00 0.00
L 0.00 126.00
M 294.00 48.00 
C 284.73 47.99 280.38 41.79 273.08 37.91 C 265.78 34.03 261.16 31.11 254.23 28.42 C 247.30 25.74 239.41 22.61 231.25 20.74 C 223.09 18.86 216.44 18.14 205.99 17.01 C 195.54 15.87 182.14 19.04 173.75 20.76 C 165.37 22.47 158.81 24.26 151.08 27.13 C 143.35 30.00 137.50 32.64 129.70 37.71 C 121.89 42.79 116.90 46.82 108.30 53.30 C 99.69 59.78 95.31 69.04 89.61 75.75 C 83.90 82.47 83.19 88.93 75.91 95.92 C 68.64 102.91 65.56 89.31 71.58 83.23 C 77.59 77.15 81.70 67.38 88.70 59.70 C 95.71 52.03 102.74 44.50 110.75 38.75 C 118.76 33.00 123.19 29.48 131.75 25.60 C 140.31 21.72 145.19 18.05 153.25 15.81 C 161.32 13.57 167.94 10.77 176.25 9.80 C 184.56 8.83 199.60 5.26 209.22 7.22 C 218.84 9.18 225.34 8.63 234.25 11.19 C 243.16 13.76 251.68 16.18 258.25 19.19 C 264.82 22.20 270.95 26.16 277.25 29.19 C 283.56 32.22 294.80 40.75 294.00 48.00
M 112.00 271.00 
C 112.54 268.36 114.41 267.34 115.00 265.00
C 135.27 276.18 148.37 284.42 168.25 290.19 C 188.14 295.96 215.28 295.38 235.25 289.24 C 255.22 283.11 270.29 278.48 289.08 261.08 C 307.87 243.68 318.95 224.66 329.00 209.00
C 340.03 215.64 328.45 227.33 323.87 235.92 C 319.29 244.50 307.13 259.14 297.30 267.30 C 287.48 275.47 278.95 283.26 268.92 287.92 C 258.89 292.58 252.37 295.22 241.75 298.80 C 231.13 302.38 221.24 303.48 207.31 304.35 C 193.37 305.23 178.00 303.26 167.75 300.20 C 157.50 297.14 147.74 294.91 139.25 290.61 C 130.75 286.31 120.01 279.90 112.00 271.00 Z" class="svg-elem-1"></path>
</g>
<g fill="None" fill-opacity="0.0" stroke="black" stroke-width="1"><path d="
M 294.00 48.00 
C 294.80 40.75 283.56 32.22 277.25 29.19 C 270.95 26.16 264.82 22.20 258.25 19.19 C 251.68 16.18 243.16 13.76 234.25 11.19 C 225.34 8.63 218.84 9.18 209.22 7.22 C 199.60 5.26 184.56 8.83 176.25 9.80 C 167.94 10.77 161.32 13.57 153.25 15.81 C 145.19 18.05 140.31 21.72 131.75 25.60 C 123.19 29.48 118.76 33.00 110.75 38.75 C 102.74 44.50 95.71 52.03 88.70 59.70 C 81.70 67.38 77.59 77.15 71.58 83.23 C 65.56 89.31 68.64 102.91 75.91 95.92 C 83.19 88.93 83.90 82.47 89.61 75.75 C 95.31 69.04 99.69 59.78 108.30 53.30 C 116.90 46.82 121.89 42.79 129.70 37.71 C 137.50 32.64 143.35 30.00 151.08 27.13 C 158.81 24.26 165.37 22.47 173.75 20.76 C 182.14 19.04 195.54 15.87 205.99 17.01 C 216.44 18.14 223.09 18.86 231.25 20.74 C 239.41 22.61 247.30 25.74 254.23 28.42 C 261.16 31.11 265.78 34.03 273.08 37.91 C 280.38 41.79 284.73 47.99 294.00 48.00 Z" class="svg-elem-2"></path>
</g>
<g fill="None" fill-opacity="0.0" stroke="black" stroke-width="1"><path d="
M 1.00 126.00 
C 1.24 128.64 0.83 131.35 1.00 134.00
C 7.40 157.74 37.52 149.63 55.23 145.58 C 72.94 141.52 91.99 132.10 110.00 127.00
C 100.54 149.14 91.32 175.92 86.19 201.75 C 81.05 227.57 75.43 268.65 89.00 293.00
C 103.23 290.62 92.85 277.68 93.35 266.69 C 93.85 255.71 93.61 239.22 95.60 229.75 C 97.60 220.28 97.49 211.58 100.24 202.25 C 103.00 192.91 106.84 183.15 109.65 174.70 C 112.45 166.24 115.28 157.60 118.29 149.30 C 121.30 141.01 126.94 135.23 129.81 127.25 C 132.68 119.28 135.95 112.59 146.25 110.26 C 156.55 107.93 163.55 103.53 173.08 101.13 C 182.61 98.74 190.64 94.56 200.08 92.13 C 209.52 89.71 217.57 85.01 229.00 84.00
C 215.99 105.52 206.72 119.90 199.39 143.25 C 192.07 166.60 187.68 189.29 164.00 206.00
C 167.89 194.40 168.33 184.15 172.61 173.75 C 176.88 163.36 171.69 150.86 159.25 153.20 C 146.80 155.54 141.92 160.67 132.25 169.25 C 122.58 177.83 118.67 185.77 115.13 195.08 C 111.59 204.39 105.70 220.00 118.71 224.29 C 131.71 228.59 139.06 211.30 147.00 204.00
C 148.04 225.53 170.23 223.37 180.00 207.00
C 183.40 214.11 178.34 218.59 178.07 226.93 C 177.80 235.26 180.14 244.35 183.00 250.00
C 186.50 248.96 190.04 250.58 194.00 250.00
C 195.56 233.21 198.97 217.53 205.87 203.92 C 212.77 190.31 221.87 175.68 237.00 163.00
C 230.74 173.02 227.90 184.48 224.92 195.92 C 221.94 207.35 218.97 226.01 232.92 227.07 C 246.87 228.12 252.78 210.48 264.00 205.00
C 277.97 217.22 289.22 189.79 303.00 184.00
C 301.59 205.11 327.26 197.02 336.70 189.71 C 346.14 182.41 362.30 170.90 372.10 158.10 C 381.90 145.30 389.17 136.88 393.41 123.75 C 397.65 110.62 399.51 88.36 392.24 76.77 C 384.96 65.18 370.53 54.46 355.75 52.40 C 340.98 50.33 318.70 50.43 304.75 53.60 C 290.81 56.77 278.38 56.55 266.30 61.29 C 254.21 66.03 240.58 69.80 226.77 73.43 C 212.96 77.05 199.89 81.93 186.25 85.24 C 172.60 88.56 160.08 96.50 146.00 98.00
C 149.73 85.51 156.85 78.06 157.00 63.00
C 153.98 62.33 151.93 59.45 151.00 58.00
C 141.26 61.84 138.29 71.78 134.19 78.75 C 130.09 85.71 127.16 92.17 124.13 100.08 C 121.10 108.00 112.16 113.11 103.70 115.65 C 95.23 118.19 88.12 120.12 78.25 123.24 C 68.38 126.37 61.94 129.90 51.25 132.20 C 40.55 134.50 33.91 138.49 20.25 135.80 C 6.59 133.11 27.24 119.87 20.25 113.80 C 13.26 107.72 2.29 119.03 1.00 126.00
M 317.00 187.00 
C 318.70 179.30 321.07 172.46 323.39 165.25 C 325.72 158.04 331.92 150.75 326.29 143.70 C 320.66 136.64 310.83 138.33 303.25 140.59 C 295.67 142.85 289.33 148.83 282.25 156.25 C 275.17 163.66 269.39 169.10 265.76 175.77 C 262.14 182.44 259.87 188.36 254.70 194.70 C 249.54 201.05 245.28 209.13 237.00 213.00
C 242.63 189.98 255.40 175.16 258.00 149.00
C 246.51 140.60 237.04 150.11 228.00 156.00
C 231.84 147.52 235.62 141.08 240.13 134.08 C 244.64 127.08 248.03 117.51 252.71 110.70 C 257.39 103.89 254.12 91.27 253.75 82.25 C 253.37 73.24 267.38 73.61 273.90 69.88 C 280.42 66.16 290.58 66.26 298.25 63.80 C 305.92 61.34 315.98 60.39 325.68 59.66 C 335.38 58.94 352.06 60.27 359.75 62.59 C 367.44 64.91 375.56 70.55 381.13 77.92 C 386.70 85.29 388.84 94.00 388.07 105.07 C 387.31 116.15 383.21 119.90 379.29 128.30 C 375.37 136.70 370.87 143.23 364.29 151.30 C 357.70 159.37 347.70 168.15 340.30 173.30 C 332.89 178.45 326.95 184.53 317.00 187.00
M 246.00 94.00 
C 240.36 118.68 227.82 132.83 214.00 154.00
C 217.47 142.18 220.85 131.40 225.19 121.75 C 229.54 112.11 235.21 101.37 246.00 94.00
M 282.00 189.00 
C 280.68 190.50 280.54 192.73 278.00 193.00
C 278.43 191.06 279.56 190.44 280.00 189.00
C 285.82 177.35 295.27 164.76 309.00 155.00
C 302.85 167.43 291.32 177.62 282.00 189.00
M 155.00 172.00 
C 146.43 183.56 141.82 195.39 129.00 206.00
C 134.80 193.53 141.05 181.75 155.00 172.00 Z" class="svg-elem-3"></path>
</g>
<g fill="None" fill-opacity="0.0" stroke="black" stroke-width="1"><path d="
M 317.00 187.00 
C 326.95 184.53 332.89 178.45 340.30 173.30 C 347.70 168.15 357.70 159.37 364.29 151.30 C 370.87 143.23 375.37 136.70 379.29 128.30 C 383.21 119.90 387.31 116.15 388.07 105.07 C 388.84 94.00 386.70 85.29 381.13 77.92 C 375.56 70.55 367.44 64.91 359.75 62.59 C 352.06 60.27 335.38 58.94 325.68 59.66 C 315.98 60.39 305.92 61.34 298.25 63.80 C 290.58 66.26 280.42 66.16 273.90 69.88 C 267.38 73.61 253.37 73.24 253.75 82.25 C 254.12 91.27 257.39 103.89 252.71 110.70 C 248.03 117.51 244.64 127.08 240.13 134.08 C 235.62 141.08 231.84 147.52 228.00 156.00
C 237.04 150.11 246.51 140.60 258.00 149.00
C 255.40 175.16 242.63 189.98 237.00 213.00
C 245.28 209.13 249.54 201.05 254.70 194.70 C 259.87 188.36 262.14 182.44 265.76 175.77 C 269.39 169.10 275.17 163.66 282.25 156.25 C 289.33 148.83 295.67 142.85 303.25 140.59 C 310.83 138.33 320.66 136.64 326.29 143.70 C 331.92 150.75 325.72 158.04 323.39 165.25 C 321.07 172.46 318.70 179.30 317.00 187.00
M 331.00 119.00 
C 323.51 113.39 322.75 103.27 318.87 95.08 C 314.99 86.90 310.06 80.61 308.00 70.00
C 315.04 67.58 321.16 76.97 324.24 81.77 C 327.31 86.57 329.78 93.62 331.06 99.08 C 332.35 104.55 340.87 115.43 331.00 119.00 Z" class="svg-elem-4"></path>
</g>
<g fill="None" fill-opacity="0.0" stroke="black" stroke-width="1"><path d="
M 331.00 119.00 
C 340.87 115.43 332.35 104.55 331.06 99.08 C 329.78 93.62 327.31 86.57 324.24 81.77 C 321.16 76.97 315.04 67.58 308.00 70.00
C 310.06 80.61 314.99 86.90 318.87 95.08 C 322.75 103.27 323.51 113.39 331.00 119.00 Z" class="svg-elem-5"></path>
</g>
<g fill="None" fill-opacity="0.0" stroke="black" stroke-width="1"><path d="
M 246.00 94.00 
C 235.21 101.37 229.54 112.11 225.19 121.75 C 220.85 131.40 217.47 142.18 214.00 154.00
C 227.82 132.83 240.36 118.68 246.00 94.00 Z" class="svg-elem-6"></path>
</g>
<g fill="None" fill-opacity="0.0" stroke="black" stroke-width="1"><path d="
M 0.00 134.00 
C 0.00 134.00 0.97 133.88 1.00 134.00
C 0.83 131.35 1.24 128.64 1.00 126.00
C 1.00 126.00 0.50 126.00 0.00 126.00
L 0.00 134.00 Z" class="svg-elem-7"></path>
</g>
<g fill="None" fill-opacity="0.0" stroke="black" stroke-width="1"><path d="
M 280.00 189.00 
C 279.97 189.01 281.10 189.59 282.00 189.00
C 291.32 177.62 302.85 167.43 309.00 155.00
C 295.27 164.76 285.82 177.35 280.00 189.00 Z" class="svg-elem-8"></path>
</g>
<g fill="None" fill-opacity="0.0" stroke="black" stroke-width="1"><path d="
M 155.00 172.00 
C 141.05 181.75 134.80 193.53 129.00 206.00
C 141.82 195.39 146.43 183.56 155.00 172.00 Z" class="svg-elem-9"></path>
</g>
<g fill="None" fill-opacity="0.0" stroke="black" stroke-width="1"><path d="
M 282.00 189.00 
C 281.10 189.59 279.97 189.01 280.00 189.00
C 279.56 190.44 278.43 191.06 278.00 193.00
C 280.54 192.73 280.68 190.50 282.00 189.00 Z" class="svg-elem-10"></path>
</g>
<g fill="None" fill-opacity="0.0" stroke="black" stroke-width="1"><path d="
M 112.00 271.00 
C 120.01 279.90 130.75 286.31 139.25 290.61 C 147.74 294.91 157.50 297.14 167.75 300.20 C 178.00 303.26 193.37 305.23 207.31 304.35 C 221.24 303.48 231.13 302.38 241.75 298.80 C 252.37 295.22 258.89 292.58 268.92 287.92 C 278.95 283.26 287.48 275.47 297.30 267.30 C 307.13 259.14 319.29 244.50 323.87 235.92 C 328.45 227.33 340.03 215.64 329.00 209.00
C 318.95 224.66 307.87 243.68 289.08 261.08 C 270.29 278.48 255.22 283.11 235.25 289.24 C 215.28 295.38 188.14 295.96 168.25 290.19 C 148.37 284.42 135.27 276.18 115.00 265.00
C 114.41 267.34 112.54 268.36 112.00 271.00 Z" class="svg-elem-11"></path>
</g>
</svg>