<?xml version="1.0" standalone="no"?>
<!DOCTYPE svg PUBLIC "-//W3C//DTD SVG 20010904//EN"
 "http://www.w3.org/TR/2001/REC-SVG-20010904/DTD/svg10.dtd">
<svg version="1.0" xmlns="http://www.w3.org/2000/svg"
 width="304.000000pt" height="231.000000pt" viewBox="0 0 304.000000 231.000000"
 preserveAspectRatio="xMidYMid meet">

<g transform="translate(0.000000,231.000000) scale(0.100000,-0.100000)"
fill="#ffffff" stroke="none">
<path d="M1410 2254 c-260 -32 -496 -140 -669 -307 -96 -93 -215 -256 -236
-325 -16 -54 46 -71 73 -20 9 17 47 77 84 133 53 81 87 119 167 187 116 100
189 144 322 192 229 83 438 89 654 20 109 -35 207 -82 288 -137 66 -46 100
-57 112 -37 20 32 -46 89 -185 162 -107 57 -182 85 -290 109 -85 19 -254 31
-320 23z"/>
<path d="M2305 1915 c-139 -23 -273 -55 -343 -81 -37 -14 -116 -39 -177 -55
-120 -32 -296 -84 -535 -160 -85 -26 -155 -47 -157 -46 -1 2 15 41 37 87 48
104 58 152 36 185 -19 29 -56 33 -78 8 -20 -23 -103 -176 -152 -280 -37 -78
-42 -84 -85 -99 -25 -9 -75 -27 -111 -40 -127 -46 -368 -122 -425 -134 -174
-36 -249 -1 -175 83 37 43 38 64 3 78 -55 21 -113 -19 -135 -93 -25 -83 28
-160 124 -180 100 -21 335 32 586 133 57 23 105 40 107 37 2 -2 -7 -28 -21
-58 -46 -97 -91 -234 -128 -381 -53 -215 -68 -323 -68 -499 -1 -131 3 -165 21
-221 23 -73 40 -94 70 -84 29 9 32 27 15 107 -21 98 -14 316 15 453 47 222
130 458 232 661 l61 122 62 22 c213 75 567 191 600 197 32 5 38 3 31 -8 -5 -8
-28 -44 -52 -81 -72 -111 -119 -216 -182 -406 -34 -100 -61 -187 -61 -194 0
-23 -163 -218 -181 -218 -9 0 -6 13 37 163 41 143 42 170 9 202 -86 87 -313
-52 -404 -246 -77 -165 -62 -269 39 -269 46 0 64 13 130 96 58 72 60 74 60 44
0 -45 25 -86 61 -99 42 -15 90 6 153 67 32 32 46 41 43 27 -30 -109 -34 -235
-9 -285 15 -31 21 -35 57 -35 l40 0 7 65 c7 70 52 220 89 291 48 95 178 270
217 293 12 7 10 -1 -6 -28 -12 -20 -38 -84 -57 -142 -52 -155 -48 -273 10
-304 53 -29 135 18 210 119 36 50 36 50 63 34 20 -12 39 -14 67 -9 32 6 56 23
123 92 46 46 86 84 88 84 2 0 4 -9 4 -20 0 -67 54 -98 136 -77 168 44 450 317
538 521 25 60 31 87 34 176 3 89 1 114 -18 162 -43 115 -144 193 -290 224 -80
17 -258 16 -365 -1z m401 -74 c147 -52 231 -193 204 -341 -21 -112 -131 -294
-241 -396 -110 -103 -268 -208 -286 -191 -4 5 3 36 16 70 65 172 73 197 67
221 -21 84 -154 91 -266 14 -74 -51 -175 -172 -222 -266 -39 -75 -168 -242
-189 -242 -14 0 23 115 84 254 67 156 78 216 43 242 -39 28 -104 12 -170 -43
-16 -13 -31 -22 -33 -19 -2 2 21 46 52 97 65 106 121 214 142 274 17 49 19
151 3 170 -7 8 -10 21 -7 28 15 38 288 124 465 146 112 14 270 5 338 -18z
m-862 -268 c-17 -73 -147 -304 -231 -412 -31 -40 62 205 117 308 58 108 130
174 114 104z m469 -447 c-14 -25 -170 -210 -199 -236 l-27 -25 34 65 c20 39
63 94 106 138 67 66 106 93 86 58z m-1159 -118 c-68 -116 -183 -265 -184 -238
0 20 89 155 138 208 37 40 61 56 46 30z"/>
<path d="M2313 1773 c-3 -9 1 -28 10 -42 43 -69 92 -173 111 -236 19 -62 25
-70 49 -73 38 -5 44 19 23 97 -44 167 -165 327 -193 254z"/>
<path d="M2447 722 c-9 -10 -17 -22 -17 -27 0 -5 -25 -51 -57 -104 -64 -110
-204 -256 -313 -326 -236 -153 -550 -204 -805 -130 -104 31 -253 100 -318 150
-50 38 -68 43 -87 20 -19 -23 10 -59 91 -111 409 -265 937 -214 1311 126 112
101 263 330 256 387 -4 34 -36 42 -61 15z"/>
</g>
</svg>
